# xmcd
#
# Track frame offsets: 
#        150
#        15753
#        37279
#        56229
#        73381
#        94360
#        117297
#        129365
#        154283
#        176708
#        196308
#
# Disc length: 2983 seconds
#
# Revision: 0
# Processed by: cddbd v1.5.2PL0 Copyright (c) Steve Scherf et al.
# Submitted via: ExactAudioCopy v1.3
#
DISCID=a00ba50b
DTITLE=Shaw Davis and The Black Ties - Shaw Davis and The Black Ties
DYEAR=2017
DGENRE=Blues
TTITLE0=Let's Hit the Road
TTITLE1=Set Me Free
TTITLE2=Hell with Ya
TTITLE3=Starvin' Blues
TTITLE4=Woman Goodbye
TTITLE5=2 Cent Head
TTITLE6=Folsom Prison Blues
TTITLE7=Separate Ways
TTITLE8=Back to Troy
TTITLE9=Missy
TTITLE10=Silver Spoon
EXTD=
EXTT0=
EXTT1=
EXTT2=
EXTT3=
EXTT4=
EXTT5=
EXTT6=
EXTT7=
EXTT8=
EXTT9=
EXTT10=
PLAYORDER=
